Genre:Action | Sci-Fi | Thriller
Language:English  http://www.imdb.com/title/tt1500491/
Source:BluRay.x264-AVCHD
Subtitles:Romana


Format : Matroska
File size : 1.85 GiB
Duration : 1h 40mn
Overall bit rate : 2 643 Kbps


Video
Format settings, CABAC : Yes
Format settings, ReFrames : 4 frames
Codec ID : V_MPEG4/ISO/AVC
Duration : 1h 40mn
Bit rate : 2 300 Kbps
Width : 1 280 pixels
Height : 720 pixels
Display aspect ratio : 16:9
Frame rate mode : Variable
Frame rate : 23.976 fps
Color space : YUV
Chroma subsampling : 4:2:0
Bit depth : 8 bits
Scan type : Progressive
Bits/(Pixel*Frame) : 0.104
Stream size : 1.55 GiB (83%)
Writing library : x264

Audio
ID : 2
Format : AC-3
Format/Info : Audio Coding 3
Mode extension : CM (complete main)
Codec ID : A_AC3
Duration : 1h 40mn
Bit rate mode : Constant
Bit rate : 384 Kbps
Channel(s) : 6 channels
Channel positions : Front: L C R, Side: L R, LFE
Sampling rate : 48.0 KHz
Bit depth : 16 bits
Video delay : -1mn 5s
Stream size : 276 MiB (15%)
Language : English


Plot:
An origin story for convicted cop killer Frankenstein.
 
http://img210.imageshack.us/img210/8647/vlcsnap2010122900h51m18.png 
http://img717.imageshack.us/img717/7803/vlcsnap2010122900h50m37.png 
http://img413.imageshack.us/img413/5853/vlcsnap2010122900h53m25.png
